<svg width="424" height="298" viewBox="0 0 424 298" fill="none" xmlns="http://www.w3.org/2000/svg">
<g clip-path="url(#clip0_2_3)">
<path fill-rule="evenodd" clip-rule="evenodd" d="M0 0H423.995V297.912H0V0ZM2.23155 2.23155H421.764V295.681H2.23155V2.23155ZM6.69466 6.69466H417.301V291.218H6.69466V6.69466ZM8.92622 8.92622H415.069V288.986H6.69466H8.92622V8.92622Z" fill="url(#paint0_linear_2_3)"/>
<path d="M69.4825 57.3432L80.8806 100.242L92.5896 57.3432C92.7968 57.0323 93.004 56.7214 93.4185 56.7214H105.231C105.853 56.7214 106.267 57.2395 106.06 57.8612L88.1339 124.488C87.9267 124.903 87.7195 125.11 87.305 125.11H74.4562C74.1453 125.11 73.8345 124.903 73.7309 124.488L55.8047 57.8612C55.7011 57.2395 56.1156 56.7214 56.7373 56.7214H68.6535C69.068 56.7214 69.2752 57.0323 69.4825 57.3432V57.3432ZM80.6734 117.96L63.3689 62.7314C63.0581 61.9024 61.9183 62.4205 62.2291 63.0422L79.4299 118.375C79.8444 119.929 81.5023 120.033 82.0204 118.375L98.5995 63.0422C98.8067 62.4205 97.6669 62.006 97.4597 62.7314L80.6734 117.96ZM142.635 125.11C142.117 125.11 141.806 124.696 141.806 124.178V57.654C141.806 57.1359 142.117 56.7214 142.635 56.7214H154.448C154.966 56.7214 155.38 57.1359 155.38 57.654V124.178C155.38 124.696 154.966 125.11 154.448 125.11H142.635ZM148.023 62.9386V118.789C148.023 119.722 149.163 119.722 149.163 118.789V62.9386C149.163 62.2133 148.023 62.2133 148.023 62.9386V62.9386ZM219.104 83.1443C226.979 86.8746 237.237 92.7809 237.237 103.454C237.237 106.562 236.719 112.572 233.299 117.65C229.465 123.349 223.456 126.146 215.166 126.146C206.358 126.146 196.1 121.898 192.888 112.261C192.784 111.951 192.888 111.64 193.199 111.432L202.732 103.246C203.146 102.936 203.768 102.936 204.079 103.454C204.286 103.972 204.7 104.801 205.219 105.837C206.773 109.049 210.503 112.261 214.648 112.261C217.86 112.261 222.212 110.5 222.212 105.526C222.212 100.76 215.684 98.0655 211.643 96.5112C206.98 94.6461 202.214 92.2628 198.172 88.7398C193.924 84.8023 191.852 80.4502 191.852 75.2693C191.852 62.3169 203.768 55.7889 215.062 55.7889C223.974 55.7889 230.605 60.4517 234.957 69.6738C235.165 70.0883 234.957 70.6064 234.646 70.8137L225.424 77.2381C225.01 77.4453 224.803 77.4453 224.388 76.9272C220.865 71.8498 217.756 69.4666 213.612 69.4666C211.436 69.4666 206.358 70.2956 206.358 74.1295C206.358 78.7923 214.959 81.1756 219.104 83.1443ZM200.245 111.743C202.835 116.924 209.985 119.929 215.788 119.929C223.352 119.929 229.465 114.748 230.294 106.873C231.331 97.2366 223.766 93.0918 216.306 89.3615L212.99 87.9108C205.322 84.4914 199.727 81.9009 199.727 74.7512C199.727 66.8761 206.98 63.2495 214.13 63.2495C220.658 63.2495 224.077 67.0834 225.839 69.4666C226.46 70.2956 227.497 69.5702 226.875 68.7413C225.113 66.5653 221.383 62.006 214.13 62.006C205.944 62.006 198.483 66.0472 198.483 74.7512C198.483 82.5226 204.7 85.5276 212.576 89.1543L215.788 90.7086C226.046 95.5787 229.776 100.138 228.947 106.77C227.393 117.339 219.311 118.686 215.788 118.686C208.016 118.686 202.835 114.023 201.281 111.122C200.763 110.603 200.038 111.122 200.245 111.743ZM274.952 125.11C274.434 125.11 274.123 124.696 274.123 124.178V57.654C274.123 57.1359 274.434 56.7214 274.952 56.7214H286.764C287.282 56.7214 287.697 57.1359 287.697 57.654V124.178C287.697 124.696 287.282 125.11 286.764 125.11H274.952ZM280.34 62.9386V118.789C280.34 119.722 281.48 119.722 281.48 118.789V62.9386C281.48 62.2133 280.34 62.2133 280.34 62.9386V62.9386ZM338.779 69.6738H324.065C323.547 69.6738 323.132 69.2594 323.132 68.7413V57.654C323.132 57.1359 323.547 56.7214 324.065 56.7214H367.274C367.792 56.7214 368.206 57.1359 368.206 57.654V68.7413C368.206 69.2594 367.792 69.6738 367.274 69.6738H352.56V124.178C352.56 124.696 352.145 125.11 351.627 125.11H339.711C339.193 125.11 338.779 124.696 338.779 124.178V69.6738V69.6738ZM360.953 62.4205H329.66C328.935 62.4205 328.935 63.7675 329.66 63.7675H344.996V118.686C344.996 119.411 346.343 119.411 346.343 118.686V63.7675H360.953C361.989 63.7675 361.886 62.4205 360.953 62.4205V62.4205Z" fill="url(#paint1_linear_2_3)"/>
<path d="M89.1495 182.063V178.89C89.1495 178.379 89.5588 177.969 90.0705 177.969H101.736C102.248 177.969 102.657 178.379 102.657 178.89V185.337C102.657 200.38 94.5731 206.725 79.3255 206.725C65.1012 206.725 55.7889 201.097 55.7889 185.337V158.424C55.7889 143.278 64.0779 137.241 79.3255 137.241C93.7545 137.241 102.657 142.767 102.657 158.424V160.573C102.657 161.084 102.248 161.494 101.736 161.494H89.9681C89.4565 161.494 89.0471 161.084 89.0471 160.573V158.935C89.0471 153.307 84.8515 150.953 79.8372 150.953H78.6092C75.2322 150.953 72.9808 151.874 71.4458 153.921C70.0132 155.865 69.5015 158.424 69.5015 161.801V182.063C69.5015 190.966 74.5158 192.91 78.6092 192.91H79.8372C86.2842 192.91 88.9448 188.612 89.1495 182.063V182.063ZM79.1208 143.585C68.1712 143.585 61.8265 147.474 61.8265 159.959V184.621C61.8265 195.98 67.6595 200.176 79.1208 200.176C89.8658 200.176 96.3128 196.287 96.3128 184.519C96.3128 183.7 95.0848 183.7 95.0848 184.519C95.0848 194.854 89.4565 199.05 79.1208 199.05C69.0922 199.05 62.9522 195.571 62.9522 184.621V159.959C62.9522 149.316 67.9665 144.711 79.1208 144.711C93.6521 144.711 94.1638 153.921 94.1638 154.944C94.1638 155.865 95.5965 155.968 95.5965 154.944C95.5965 146.451 87.0005 143.585 79.1208 143.585V143.585ZM167.432 138.162C174.39 138.162 179.609 140.106 183.089 143.892C186.159 147.269 187.694 152.284 187.694 158.424V185.542C187.694 197.924 180.53 205.701 167.432 205.701H141.849C141.337 205.701 141.03 205.292 141.03 204.78V139.083C141.03 138.571 141.337 138.162 141.849 138.162H167.432V138.162ZM174.288 182.472V161.494C174.288 155.047 170.911 150.953 163.748 150.953H154.538V192.91H163.748C169.888 192.91 174.288 188.919 174.288 182.472ZM147.272 144.404V199.459C147.272 199.869 147.681 199.971 147.886 199.971H164.566C176.335 199.971 181.656 192.91 181.656 186.361V160.163C181.656 149.316 175.925 143.79 164.259 143.79H147.886C147.681 143.79 147.272 143.892 147.272 144.404V144.404ZM180.428 160.163V186.361C180.428 194.547 172.241 198.845 164.566 198.845H148.5V145.12H164.259C175.004 145.12 180.428 149.93 180.428 160.163V160.163ZM283.168 138.162C283.68 138.162 284.089 138.571 284.089 139.083V204.78C284.089 205.292 283.68 205.701 283.168 205.701H272.014C271.707 205.701 271.195 205.292 271.195 204.78V166.917L259.938 205.087C259.734 205.497 259.529 205.701 259.12 205.701H251.035C250.728 205.701 250.319 205.497 250.217 205.087L239.676 166.201V204.78C239.676 205.292 239.267 205.701 238.755 205.701H227.396C226.987 205.701 226.68 205.292 226.68 204.78V139.083C226.68 138.571 226.987 138.162 227.396 138.162H241.723C242.132 138.162 242.542 138.469 242.644 138.776L255.026 180.221L268.637 138.776C268.637 138.469 268.944 138.162 269.353 138.162H283.168V138.162ZM276.823 199.459C276.823 200.176 278.154 200.38 278.154 199.459V144.302C278.154 144.097 277.847 143.79 277.54 143.79H272.73C272.321 143.79 272.218 144.097 272.014 144.302L255.026 194.957L238.141 144.199C238.141 143.892 237.937 143.79 237.63 143.79H232.615C232.308 143.79 232.001 144.097 232.001 144.404V199.459C232.001 200.176 233.332 200.38 233.332 199.459V145.12H237.118L254.412 197.106C254.822 197.822 255.129 197.617 255.64 197.106L273.037 145.12H276.823V199.459V199.459ZM352.854 138.162H364.52C365.134 138.162 365.544 138.776 365.339 139.492L352.036 169.476L368.102 204.473C368.409 205.087 368 205.701 367.386 205.701H355.822C355.413 205.701 355.208 205.599 355.106 205.19L343.849 181.244L332.592 205.19C332.285 205.701 332.183 205.701 331.774 205.701H320.108C319.494 205.701 319.084 205.087 319.391 204.473L335.355 169.476L322.154 139.492C321.95 138.776 322.359 138.162 322.973 138.162H334.844C335.253 138.162 335.458 138.469 335.662 138.673L343.849 156.889L352.138 138.673C352.24 138.469 352.547 138.162 352.854 138.162V138.162ZM358.892 199.664C359.199 200.176 360.325 199.971 359.915 199.05L344.565 169.169L356.948 144.813C357.255 144.199 356.641 143.381 355.924 144.097L343.849 167.838L331.671 144.097C331.262 143.381 329.829 143.892 330.341 144.813L343.03 169.169L327.578 199.05C327.271 199.971 328.499 200.176 328.704 199.664L343.849 170.499L358.892 199.664Z" fill="url(#paint2_linear_2_3)"/>
<path d="M72.3308 237.02C72.0465 237.609 71.6403 238.056 71.0717 238.32L72.7776 242.077C72.8385 242.199 72.7573 242.321 72.6354 242.321H70.1375C70.0563 242.321 70.0156 242.28 69.9953 242.219L68.4113 238.767H67.3755V242.138C67.3755 242.24 67.2943 242.321 67.1927 242.321H64.8572C64.776 242.321 64.7151 242.24 64.7151 242.138V229.1C64.7151 228.998 64.776 228.917 64.8572 228.917H69.0814C71.3357 228.917 72.6964 230.197 72.6964 232.573V235.132C72.6964 235.842 72.5745 236.513 72.3308 237.02V237.02ZM70.0359 234.502V233.182C70.0359 231.76 69.5079 231.618 67.9645 231.618H67.3755V236.106H67.9645C69.2439 236.106 69.9953 236.086 70.0359 234.502ZM66.1976 241.082V237.609H69.1221L70.828 241.123C70.8686 241.224 71.1123 241.183 71.0514 241.001L69.3455 237.548C70.9295 237.325 71.4779 236.492 71.4779 234.989V232.451C71.4779 230.217 69.447 230.034 68.8174 230.034H66.0758C66.0351 230.034 65.9539 230.095 65.9539 230.156V241.082C65.9539 241.224 66.1976 241.224 66.1976 241.082V241.082ZM71.2342 232.451V234.989C71.2342 237.061 69.9141 237.345 68.6346 237.345H66.1976V230.298H68.8174C71.0108 230.298 71.2342 231.781 71.2342 232.451V232.451ZM85.1999 242.321C85.0983 242.321 85.0374 242.24 85.0374 242.138V229.1C85.0374 228.998 85.0983 228.917 85.1999 228.917H92.1048C92.2063 228.917 92.2876 228.998 92.2876 229.1V231.273C92.2876 231.374 92.2063 231.456 92.1048 231.456H87.7181V234.218H91.13C91.2315 234.218 91.2925 234.299 91.2925 234.4V236.614C91.2925 236.716 91.2315 236.797 91.13 236.797H87.7181V239.782H92.1048C92.2063 239.782 92.2876 239.863 92.2876 239.965V242.138C92.2876 242.24 92.2063 242.321 92.1048 242.321H85.1999ZM86.2153 230.197V241.001C86.2153 241.123 86.2965 241.163 86.3778 241.163H91.0488C91.2315 241.163 91.1909 240.919 91.0488 240.919H86.4793V235.619H90.2161C90.3379 235.619 90.3379 235.335 90.2161 235.335H86.4793V230.298H91.0488C91.1909 230.298 91.2315 230.034 91.0488 230.034H86.3778C86.2965 230.034 86.2153 230.095 86.2153 230.197V230.197ZM110.823 237.629V237C110.823 236.898 110.904 236.817 111.006 236.817H113.321C113.422 236.817 113.503 236.898 113.503 237V238.279C113.503 241.265 111.899 242.524 108.873 242.524C106.05 242.524 104.202 241.407 104.202 238.279V232.938C104.202 229.933 105.847 228.734 108.873 228.734C111.737 228.734 113.503 229.831 113.503 232.938V233.365C113.503 233.466 113.422 233.547 113.321 233.547H110.985C110.884 233.547 110.802 233.466 110.802 233.365V233.04C110.802 231.923 109.97 231.456 108.975 231.456H108.731C108.061 231.456 107.614 231.638 107.309 232.045C107.025 232.43 106.923 232.938 106.923 233.608V237.629C106.923 239.396 107.919 239.782 108.731 239.782H108.975C110.254 239.782 110.782 238.929 110.823 237.629V237.629ZM108.832 229.993C106.659 229.993 105.4 230.765 105.4 233.243V238.137C105.4 240.391 106.558 241.224 108.832 241.224C110.965 241.224 112.244 240.452 112.244 238.117C112.244 237.954 112.001 237.954 112.001 238.117C112.001 240.168 110.884 241.001 108.832 241.001C106.842 241.001 105.624 240.31 105.624 238.137V233.243C105.624 231.131 106.619 230.217 108.832 230.217C111.716 230.217 111.818 232.045 111.818 232.248C111.818 232.43 112.102 232.451 112.102 232.248C112.102 230.562 110.396 229.993 108.832 229.993V229.993ZM130.089 228.734C131.836 228.734 133.054 229.12 133.826 229.953C134.435 230.623 134.719 231.578 134.719 232.938V238.279C134.719 239.681 134.435 240.655 133.826 241.305C133.034 242.118 131.836 242.524 130.089 242.524C128.282 242.524 127.104 242.118 126.332 241.305C125.743 240.655 125.418 239.681 125.418 238.279V232.938C125.418 231.578 125.743 230.623 126.332 229.933C127.124 229.12 128.322 228.734 130.089 228.734V228.734ZM132.018 237.67V233.608C132.018 231.821 131.064 231.456 130.191 231.456H129.947C128.647 231.456 128.139 232.288 128.139 233.608V237.67C128.139 239.457 129.094 239.843 129.947 239.843H130.191C131.49 239.843 131.998 238.97 132.018 237.67V237.67ZM126.697 233.08V238.117C126.697 239.071 126.941 239.863 127.51 240.452C128.038 240.98 128.85 241.265 129.845 241.265H130.373C132.282 241.265 133.521 240.046 133.521 238.117V233.08C133.521 231.009 132.424 229.892 130.373 229.892H129.845C127.774 229.892 126.697 231.009 126.697 233.08V233.08ZM130.373 241.001H129.845C128.891 241.001 128.18 240.757 127.672 240.249C127.165 239.742 126.901 239.031 126.901 238.117V233.08C126.901 231.151 127.936 230.136 129.845 230.136H130.373C132.303 230.136 133.257 231.131 133.257 233.08V238.117C133.257 238.97 132.993 239.742 132.445 240.27C131.917 240.716 131.206 241.001 130.373 241.001V241.001ZM158.23 228.917C158.332 228.917 158.413 228.998 158.413 229.1V242.138C158.413 242.24 158.332 242.321 158.23 242.321H156.016C155.956 242.321 155.854 242.24 155.854 242.138V234.624L153.62 242.199C153.579 242.28 153.539 242.321 153.458 242.321H151.853C151.792 242.321 151.711 242.28 151.691 242.199L149.599 234.482V242.138C149.599 242.24 149.518 242.321 149.416 242.321H147.162C147.081 242.321 147.02 242.24 147.02 242.138V229.1C147.02 228.998 147.081 228.917 147.162 228.917H150.005C150.086 228.917 150.168 228.978 150.188 229.039L152.645 237.264L155.346 229.039C155.346 228.978 155.407 228.917 155.488 228.917H158.23V228.917ZM156.971 241.082C156.971 241.224 157.235 241.265 157.235 241.082V230.136C157.235 230.095 157.174 230.034 157.113 230.034H156.159C156.077 230.034 156.057 230.095 156.016 230.136L152.645 240.188L149.294 230.115C149.294 230.054 149.254 230.034 149.193 230.034H148.198C148.137 230.034 148.076 230.095 148.076 230.156V241.082C148.076 241.224 148.34 241.265 148.34 241.082V230.298H149.091L152.523 240.615C152.605 240.757 152.666 240.716 152.767 240.615L156.22 230.298H156.971V241.082ZM171.14 242.321C171.038 242.321 170.977 242.24 170.977 242.138V229.1C170.977 228.998 171.038 228.917 171.14 228.917H178.045C178.146 228.917 178.228 228.998 178.228 229.1V231.273C178.228 231.374 178.146 231.456 178.045 231.456H173.658V234.218H177.07C177.171 234.218 177.232 234.299 177.232 234.4V236.614C177.232 236.716 177.171 236.797 177.07 236.797H173.658V239.782H178.045C178.146 239.782 178.228 239.863 178.228 239.965V242.138C178.228 242.24 178.146 242.321 178.045 242.321H171.14ZM172.155 230.197V241.001C172.155 241.123 172.236 241.163 172.318 241.163H176.989C177.171 241.163 177.131 240.919 176.989 240.919H172.419V235.619H176.156C176.278 235.619 176.278 235.335 176.156 235.335H172.419V230.298H176.989C177.131 230.298 177.171 230.034 176.989 230.034H172.318C172.236 230.034 172.155 230.095 172.155 230.197V230.197ZM195.95 229.1C195.95 228.998 196.032 228.917 196.133 228.917H198.469C198.57 228.917 198.651 228.998 198.651 229.1V242.138C198.651 242.24 198.57 242.321 198.469 242.321H196.214C196.133 242.321 196.052 242.28 196.032 242.219L193.067 235.538V242.138C193.067 242.24 192.985 242.321 192.884 242.321H190.569C190.467 242.321 190.406 242.24 190.406 242.138V229.1C190.406 228.998 190.467 228.917 190.569 228.917H192.965C193.046 228.917 193.087 228.978 193.107 229.019L195.95 235.578V229.1V229.1ZM197.413 241.102V230.136C197.413 229.993 197.149 229.953 197.149 230.136V240.574L191.848 230.095C191.787 230.014 191.625 230.014 191.625 230.136V241.082C191.625 241.265 191.868 241.265 191.868 241.082V230.664L197.149 241.123C197.23 241.265 197.413 241.224 197.413 241.102ZM216.455 228.917C217.836 228.917 218.872 229.303 219.563 230.054C220.172 230.725 220.477 231.72 220.477 232.938V238.32C220.477 240.777 219.055 242.321 216.455 242.321H211.378C211.277 242.321 211.216 242.24 211.216 242.138V229.1C211.216 228.998 211.277 228.917 211.378 228.917H216.455V228.917ZM217.816 237.711V233.547C217.816 232.268 217.146 231.456 215.724 231.456H213.897V239.782H215.724C216.943 239.782 217.816 238.99 217.816 237.711ZM212.455 230.156V241.082C212.455 241.163 212.536 241.183 212.576 241.183H215.887C218.222 241.183 219.278 239.782 219.278 238.482V233.283C219.278 231.131 218.141 230.034 215.826 230.034H212.576C212.536 230.034 212.455 230.054 212.455 230.156V230.156ZM219.035 233.283V238.482C219.035 240.107 217.41 240.96 215.887 240.96H212.698V230.298H215.826C217.958 230.298 219.035 231.253 219.035 233.283V233.283ZM235.316 229.039C235.336 228.978 235.376 228.917 235.458 228.917H237.976C238.057 228.917 238.098 228.978 238.118 229.039L241.631 242.097C241.652 242.219 241.571 242.321 241.449 242.321H239.134C239.073 242.321 239.012 242.28 238.991 242.199L238.199 239.356H235.234L234.463 242.199C234.442 242.28 234.402 242.321 234.32 242.321H231.985C231.863 242.321 231.782 242.219 231.802 242.097L235.316 229.039ZM235.884 236.837H237.57L236.696 233.771L235.884 236.837ZM239.012 238.036L239.946 241.082C239.986 241.204 240.21 241.183 240.149 241.021L236.9 230.217C236.839 229.953 236.493 229.933 236.432 230.217L233.285 241.021C233.224 241.163 233.447 241.224 233.508 241.102L234.402 238.036H239.012V238.036ZM234.463 237.772L236.676 230.298L238.93 237.772H234.463ZM259.578 237.629V237C259.578 236.898 259.659 236.817 259.76 236.817H262.076C262.177 236.817 262.258 236.898 262.258 237V238.279C262.258 241.265 260.654 242.524 257.628 242.524C254.805 242.524 252.957 241.407 252.957 238.279V232.938C252.957 229.933 254.602 228.734 257.628 228.734C260.492 228.734 262.258 229.831 262.258 232.938V233.365C262.258 233.466 262.177 233.547 262.076 233.547H259.74C259.639 233.547 259.557 233.466 259.557 233.365V233.04C259.557 231.923 258.725 231.456 257.73 231.456H257.486C256.816 231.456 256.369 231.638 256.064 232.045C255.78 232.43 255.678 232.938 255.678 233.608V237.629C255.678 239.396 256.674 239.782 257.486 239.782H257.73C259.009 239.782 259.537 238.929 259.578 237.629V237.629ZM257.587 229.993C255.414 229.993 254.155 230.765 254.155 233.243V238.137C254.155 240.391 255.313 241.224 257.587 241.224C259.72 241.224 260.999 240.452 260.999 238.117C260.999 237.954 260.756 237.954 260.756 238.117C260.756 240.168 259.639 241.001 257.587 241.001C255.597 241.001 254.379 240.31 254.379 238.137V233.243C254.379 231.131 255.374 230.217 257.587 230.217C260.471 230.217 260.573 232.045 260.573 232.248C260.573 232.43 260.857 232.451 260.857 232.248C260.857 230.562 259.151 229.993 257.587 229.993V229.993ZM274.599 242.321C274.498 242.321 274.437 242.24 274.437 242.138V229.1C274.437 228.998 274.498 228.917 274.599 228.917H276.915C277.016 228.917 277.097 228.998 277.097 229.1V242.138C277.097 242.24 277.016 242.321 276.915 242.321H274.599ZM275.656 230.136V241.082C275.656 241.265 275.879 241.265 275.879 241.082V230.136C275.879 229.993 275.656 229.993 275.656 230.136V230.136ZM293.988 228.734C295.734 228.734 296.953 229.12 297.724 229.953C298.334 230.623 298.618 231.578 298.618 232.938V238.279C298.618 239.681 298.334 240.655 297.724 241.305C296.932 242.118 295.734 242.524 293.988 242.524C292.18 242.524 291.002 242.118 290.23 241.305C289.642 240.655 289.317 239.681 289.317 238.279V232.938C289.317 231.578 289.642 230.623 290.23 229.933C291.023 229.12 292.221 228.734 293.988 228.734V228.734ZM295.917 237.67V233.608C295.917 231.821 294.962 231.456 294.089 231.456H293.845C292.546 231.456 292.038 232.288 292.038 233.608V237.67C292.038 239.457 292.992 239.843 293.845 239.843H294.089C295.389 239.843 295.897 238.97 295.917 237.67V237.67ZM290.596 233.08V238.117C290.596 239.071 290.84 239.863 291.408 240.452C291.936 240.98 292.749 241.265 293.744 241.265H294.272C296.181 241.265 297.42 240.046 297.42 238.117V233.08C297.42 231.009 296.323 229.892 294.272 229.892H293.744C291.672 229.892 290.596 231.009 290.596 233.08V233.08ZM294.272 241.001H293.744C292.789 241.001 292.079 240.757 291.571 240.249C291.063 239.742 290.799 239.031 290.799 238.117V233.08C290.799 231.151 291.835 230.136 293.744 230.136H294.272C296.201 230.136 297.156 231.131 297.156 233.08V238.117C297.156 238.97 296.892 239.742 296.343 240.27C295.815 240.716 295.105 241.001 294.272 241.001V241.001ZM316.463 229.1C316.463 228.998 316.544 228.917 316.645 228.917H318.981C319.082 228.917 319.164 228.998 319.164 229.1V242.138C319.164 242.24 319.082 242.321 318.981 242.321H316.727C316.645 242.321 316.564 242.28 316.544 242.219L313.579 235.538V242.138C313.579 242.24 313.498 242.321 313.396 242.321H311.081C310.979 242.321 310.918 242.24 310.918 242.138V229.1C310.918 228.998 310.979 228.917 311.081 228.917H313.477C313.558 228.917 313.599 228.978 313.619 229.019L316.463 235.578V229.1V229.1ZM317.925 241.102V230.136C317.925 229.993 317.661 229.953 317.661 230.136V240.574L312.36 230.095C312.299 230.014 312.137 230.014 312.137 230.136V241.082C312.137 241.265 312.381 241.265 312.381 241.082V230.664L317.661 241.123C317.742 241.265 317.925 241.224 317.925 241.102ZM331.891 242.321C331.789 242.321 331.728 242.24 331.728 242.138V229.1C331.728 228.998 331.789 228.917 331.891 228.917H338.795C338.897 228.917 338.978 228.998 338.978 229.1V231.273C338.978 231.374 338.897 231.456 338.795 231.456H334.409V234.218H337.821C337.922 234.218 337.983 234.299 337.983 234.4V236.614C337.983 236.716 337.922 236.797 337.821 236.797H334.409V239.782H338.795C338.897 239.782 338.978 239.863 338.978 239.965V242.138C338.978 242.24 338.897 242.321 338.795 242.321H331.891ZM332.906 230.197V241.001C332.906 241.123 332.987 241.163 333.068 241.163H337.739C337.922 241.163 337.882 240.919 337.739 240.919H333.17V235.619H336.907C337.029 235.619 337.029 235.335 336.907 235.335H333.17V230.298H337.739C337.882 230.298 337.922 230.034 337.739 230.034H333.068C332.987 230.034 332.906 230.095 332.906 230.197V230.197ZM355.726 234.096C357.27 234.827 359.28 235.984 359.28 238.076C359.28 238.686 359.179 239.863 358.509 240.859C357.757 241.976 356.579 242.524 354.955 242.524C353.228 242.524 351.218 241.691 350.588 239.803C350.568 239.742 350.588 239.681 350.649 239.64L352.517 238.036C352.599 237.975 352.721 237.975 352.781 238.076C352.822 238.178 352.903 238.34 353.005 238.543C353.31 239.173 354.041 239.803 354.853 239.803C355.483 239.803 356.336 239.457 356.336 238.482C356.336 237.548 355.056 237.02 354.264 236.716C353.35 236.35 352.416 235.883 351.624 235.192C350.791 234.421 350.385 233.568 350.385 232.552C350.385 230.014 352.721 228.734 354.934 228.734C356.681 228.734 357.98 229.648 358.833 231.456C358.874 231.537 358.833 231.638 358.773 231.679L356.965 232.938C356.884 232.979 356.843 232.979 356.762 232.877C356.072 231.882 355.462 231.415 354.65 231.415C354.223 231.415 353.228 231.578 353.228 232.329C353.228 233.243 354.914 233.71 355.726 234.096V234.096ZM352.03 239.701C352.538 240.716 353.939 241.305 355.076 241.305C356.559 241.305 357.757 240.29 357.92 238.746C358.123 236.858 356.64 236.045 355.178 235.314L354.528 235.03C353.025 234.36 351.929 233.852 351.929 232.451C351.929 230.907 353.35 230.197 354.751 230.197C356.031 230.197 356.701 230.948 357.046 231.415C357.168 231.578 357.371 231.435 357.249 231.273C356.904 230.846 356.173 229.953 354.751 229.953C353.147 229.953 351.685 230.745 351.685 232.451C351.685 233.974 352.903 234.563 354.447 235.274L355.076 235.578C357.087 236.533 357.818 237.426 357.656 238.726C357.351 240.798 355.767 241.062 355.076 241.062C353.553 241.062 352.538 240.148 352.233 239.579C352.132 239.478 351.989 239.579 352.03 239.701V239.701Z" fill="url(#paint3_linear_2_3)"/>
</g>
<defs>
<linearGradient id="paint0_linear_2_3" x1="0" y1="0" x2="423.995" y2="0" gradientUnits="userSpaceOnUse">
<stop stop-color="#8F5E25"/>
<stop offset="0.5" stop-color="#FBF4A1"/>
<stop offset="1" stop-color="#8F5E25"/>
</linearGradient>
<linearGradient id="paint1_linear_2_3" x1="55.7889" y1="55.7889" x2="368.206" y2="55.7889" gradientUnits="userSpaceOnUse">
<stop stop-color="#8F5E25"/>
<stop offset="0.5" stop-color="#FBF4A1"/>
<stop offset="1" stop-color="#8F5E25"/>
</linearGradient>
<linearGradient id="paint2_linear_2_3" x1="55.7889" y1="137.241" x2="368.206" y2="137.241" gradientUnits="userSpaceOnUse">
<stop stop-color="#8F5E25"/>
<stop offset="0.5" stop-color="#FBF4A1"/>
<stop offset="1" stop-color="#8F5E25"/>
</linearGradient>
<linearGradient id="paint3_linear_2_3" x1="64.7151" y1="228.734" x2="359.28" y2="228.734" gradientUnits="userSpaceOnUse">
<stop stop-color="#8F5E25"/>
<stop offset="0.5" stop-color="#FBF4A1"/>
<stop offset="1" stop-color="#8F5E25"/>
</linearGradient>
<clipPath id="clip0_2_3">
<rect width="423.995" height="297.913" fill="white"/>
</clipPath>
</defs>
</svg>
